# xmcd CD database file
#
# Track frame offsets:
#	183
#	12288
#	32675
#	45520
#	66910
#	86865
#	109933
#	129520
#	146345
#	161795
#	181033
#	193870
#
# Disc length: 2783 seconds
#
# Revision: 0
# Processed by: cddbd v1.4PL0 Copyright (c) Steve Scherf et al.
# Submitted via: CDex 1.40Beta8
#
DISCID=a20add0c
DTITLE=Living Chicago Blues - Volume 2
DYEAR=1978
DGENRE=Blues
TTITLE0=Too Late/Carey Bell's Blues Harp Band
TTITLE1=Laundromat/Carey Bell's Blues Harp Band
TTITLE2=One Day/Carey Bell's Blues Harp Band
TTITLE3=Woman In Trouble/Carey Bell's Blues Harp Band
TTITLE4=Stranded On The Highway/Magic Slim and The Teardrops
TTITLE5=Dirty Mother For You/Magic Slim and The Teardrops
TTITLE6=Spider In My Stew/Magic Slim and The Teardrops
TTITLE7=Don't Say That No More/Magic Slim and The Teardrops
TTITLE8=Would You Baby/Johnny "Big Moose" Walker and Louis Myers
TTITLE9=Worry, Worry/Johnny "Big Moose" Walker and Louis Myers
TTITLE10=Sunnyland Blues/Johnny "Big Moose" Walker and Louis Myers
TTITLE11=Cry, Cry Darling/Johnny "Big Moose" Walker and Louis Myers
EXTD=YEAR: 1978 ID3G: 0
EXTT0=
EXTT1=
EXTT2=
EXTT3=
EXTT4=
EXTT5=
EXTT6=
EXTT7=
EXTT8=
EXTT9=
EXTT10=
EXTT11=
PLAYORDER=
